<svg width="932" height="173" viewBox="0 0 932 173" fill="none" xmlns="http://www.w3.org/2000/svg">
<path d="M12.2314 29.1904C11.0107 29.1904 9.96094 29.6299 9.08203 30.5088C8.25195 31.3389 7.83691 32.3643 7.83691 33.585V129.605C7.83691 130.826 8.25195 131.876 9.08203 132.755C9.96094 133.585 11.0107 134 12.2314 134H64.0869C65.3076 134 66.333 133.585 67.1631 132.755C68.042 131.876 68.4814 130.826 68.4814 129.605C68.4814 128.434 68.042 127.408 67.1631 126.529C66.333 125.699 65.3076 125.284 64.0869 125.284H16.5527V33.585C16.5527 32.3643 16.1377 31.3389 15.3076 30.5088C14.4287 29.6299 13.4033 29.1904 12.2314 29.1904ZM98.0332 33.6582C98.0332 32.4375 97.5938 31.4121 96.7148 30.582C95.8848 29.7031 94.8594 29.2637 93.6387 29.2637C92.418 29.2637 91.3926 29.7031 90.5625 30.582C89.6836 31.4121 89.2441 32.4375 89.2441 33.6582V129.605C89.2441 130.826 89.6836 131.852 90.5625 132.682C91.3926 133.561 92.418 134 93.6387 134C94.8594 134 95.8848 133.561 96.7148 132.682C97.5938 131.852 98.0332 130.826 98.0332 129.605V33.6582ZM175.705 125.211C163.645 125.211 153.317 120.938 144.724 112.394C136.179 103.8 131.906 93.4727 131.906 81.4121C131.906 69.3027 136.179 58.9756 144.724 50.4307C153.317 41.8369 163.645 37.54 175.705 37.54C187.814 37.54 198.142 41.8369 206.687 50.4307C215.28 58.9756 219.577 69.3027 219.577 81.4121C219.577 91.3242 216.525 100.211 210.422 108.072L199.655 97.3057C198.776 96.4268 197.727 95.9873 196.506 95.9873C195.334 95.9873 194.309 96.4268 193.43 97.3057C192.6 98.1357 192.185 99.1611 192.185 100.382C192.185 101.603 192.6 102.628 193.43 103.458L204.416 114.444C196.164 121.622 186.594 125.211 175.705 125.211ZM216.721 114.371C224.436 104.703 228.293 93.7168 228.293 81.4121C228.293 66.9102 223.166 54.5078 212.912 44.2051C202.609 33.9512 190.207 28.8242 175.705 28.8242C161.203 28.8242 148.825 33.9512 138.571 44.2051C128.269 54.5078 123.117 66.9102 123.117 81.4121C123.117 95.9141 128.269 108.292 138.571 118.546C148.825 128.849 161.203 134 175.705 134C189.035 134 200.681 129.557 210.642 120.67L222.653 132.682C223.532 133.561 224.558 134 225.729 134C226.95 134 228 133.561 228.879 132.682C229.709 131.852 230.124 130.826 230.124 129.605C230.124 128.385 229.709 127.359 228.879 126.529L216.721 114.371ZM320.065 29.1904C318.894 29.1904 317.893 29.6055 317.062 30.4355C316.232 31.2656 315.817 32.291 315.817 33.5117V98.0381C315.817 105.606 313.132 112.052 307.761 117.374C302.39 122.745 295.944 125.431 288.425 125.431C280.856 125.431 274.411 122.745 269.089 117.374C263.718 112.052 261.032 105.606 261.032 98.0381V33.5117C261.032 32.291 260.617 31.2656 259.787 30.4355C258.957 29.6055 257.956 29.1904 256.784 29.1904C255.563 29.1904 254.538 29.6055 253.708 30.4355C252.878 31.2656 252.463 32.291 252.463 33.5117V98.0381C252.463 107.95 255.979 116.422 263.01 123.453C270.041 130.484 278.513 134 288.425 134C298.337 134 306.809 130.484 313.84 123.453C320.871 116.422 324.387 107.95 324.387 98.0381V33.5117C324.387 32.291 323.972 31.2656 323.142 30.4355C322.263 29.6055 321.237 29.1904 320.065 29.1904ZM363.24 33.6582C363.24 32.4375 362.801 31.4121 361.922 30.582C361.092 29.7031 360.066 29.2637 358.846 29.2637C357.625 29.2637 356.6 29.7031 355.77 30.582C354.891 31.4121 354.451 32.4375 354.451 33.6582V129.605C354.451 130.826 354.891 131.852 355.77 132.682C356.6 133.561 357.625 134 358.846 134C360.066 134 361.092 133.561 361.922 132.682C362.801 131.852 363.24 130.826 363.24 129.605V33.6582ZM403.339 37.6865H423.334C435.346 37.6865 445.624 41.9346 454.169 50.4307C462.714 58.9756 466.986 69.2539 466.986 81.2656C466.986 93.2773 462.714 103.556 454.169 112.101C445.624 120.597 435.321 124.845 423.261 124.845L403.339 125.138V37.6865ZM399.018 134L423.334 133.707C437.787 133.707 450.141 128.58 460.395 118.326C470.648 108.072 475.775 95.7188 475.775 81.2656C475.775 66.8125 470.648 54.459 460.395 44.2051C450.141 33.9512 437.787 28.8242 423.334 28.8242H398.944C397.724 28.8242 396.698 29.2637 395.868 30.1426C394.989 31.0215 394.55 32.0713 394.55 33.292V129.605C394.55 130.826 394.989 131.876 395.868 132.755C396.698 133.585 397.724 134 398.944 134H399.018ZM563.666 29.1904C562.494 28.7998 561.371 28.873 560.297 29.4102C559.223 29.8984 558.49 30.7285 558.1 31.9004L528.363 116.422L498.7 31.9004C498.31 30.7285 497.577 29.8984 496.503 29.4102C495.429 28.873 494.306 28.7998 493.134 29.1904C492.011 29.5811 491.181 30.3379 490.644 31.4609C490.106 32.5352 490.058 33.6338 490.497 34.7568L524.262 131.07C524.262 131.021 524.311 131.119 524.408 131.363C524.457 131.461 524.481 131.534 524.481 131.583C524.579 131.778 524.701 131.949 524.848 132.096C524.848 132.145 524.848 132.169 524.848 132.169C524.896 132.218 524.921 132.242 524.921 132.242C525.067 132.438 525.238 132.633 525.434 132.828C525.385 132.779 525.434 132.828 525.58 132.975C525.727 133.072 525.873 133.17 526.02 133.268C526.068 133.316 526.142 133.365 526.239 133.414C526.435 133.512 526.63 133.609 526.825 133.707C526.825 133.707 526.85 133.707 526.898 133.707C526.898 133.707 526.923 133.731 526.972 133.78C526.923 133.731 526.923 133.731 526.972 133.78C527.118 133.829 527.289 133.878 527.484 133.927C527.68 133.927 527.753 133.927 527.704 133.927C527.948 133.976 528.168 134 528.363 134C528.607 134 528.852 133.976 529.096 133.927C529.047 133.927 529.12 133.927 529.315 133.927C529.511 133.878 529.657 133.829 529.755 133.78C529.853 133.731 529.877 133.731 529.828 133.78C529.877 133.731 529.901 133.707 529.901 133.707C529.95 133.707 529.975 133.707 529.975 133.707C530.17 133.609 530.341 133.512 530.487 133.414C530.585 133.365 530.683 133.316 530.78 133.268C530.927 133.17 531.073 133.072 531.22 132.975C531.366 132.828 531.415 132.779 531.366 132.828C531.562 132.633 531.732 132.438 531.879 132.242C531.83 132.34 531.854 132.291 531.952 132.096C532.099 131.949 532.221 131.778 532.318 131.583C532.318 131.534 532.343 131.461 532.392 131.363C532.489 131.07 532.538 130.973 532.538 131.07L566.303 34.7568C566.693 33.6338 566.645 32.5352 566.156 31.4609C565.619 30.3379 564.789 29.5811 563.666 29.1904ZM649.799 134C651.02 134 652.045 133.561 652.875 132.682C653.754 131.852 654.193 130.826 654.193 129.605C654.193 128.385 653.754 127.359 652.875 126.529C652.045 125.65 651.02 125.211 649.799 125.211H596.039V85.8066H636.249C637.47 85.8066 638.495 85.3672 639.325 84.4883C640.204 83.6582 640.644 82.6328 640.644 81.4121C640.644 80.1914 640.204 79.166 639.325 78.3359C638.495 77.457 637.47 77.0176 636.249 77.0176H596.039V37.6133L649.799 37.7598C651.02 37.7598 652.045 37.3447 652.875 36.5146C653.754 35.6357 654.193 34.5859 654.193 33.3652C654.193 32.1934 653.754 31.168 652.875 30.2891C652.045 29.4102 651.02 28.9707 649.799 28.9707L591.645 28.8242C590.473 28.7754 589.447 29.2148 588.568 30.1426C587.689 30.9727 587.25 31.998 587.25 33.2188V129.605C587.25 130.826 587.689 131.852 588.568 132.682C589.398 133.561 590.424 134 591.645 134H649.799ZM735.419 57.3887C735.419 62.7109 733.319 67.2764 729.12 71.085C724.97 74.8936 719.916 76.8467 713.959 76.9443H684.662V37.7598H713.446C719.501 37.7598 724.677 39.6885 728.974 43.5459C733.271 47.3545 735.419 51.9688 735.419 57.3887ZM680.268 29.1172C679.096 29.1172 678.07 29.5322 677.191 30.3623C676.361 31.1924 675.946 32.2178 675.946 33.4385V128.946C675.946 130.118 676.361 131.144 677.191 132.022C678.07 132.853 679.096 133.268 680.268 133.268C681.488 133.268 682.514 132.853 683.344 132.022C684.223 131.144 684.662 130.118 684.662 128.946V85.6602H709.125L731.757 131.583C732.538 133.194 733.832 134 735.639 134C736.322 134 736.957 133.854 737.543 133.561C738.617 133.023 739.35 132.193 739.74 131.07C740.131 129.947 740.058 128.849 739.521 127.774L718.646 85.2207C725.922 84.0977 731.952 80.9238 736.737 75.6992C741.62 70.4258 744.062 64.3223 744.062 57.3887C744.062 49.5762 741.083 42.9111 735.126 37.3936C729.12 31.876 721.894 29.1172 713.446 29.1172H680.268ZM798.7 134C790.985 134 784.101 132.413 778.046 129.239C770.771 125.382 766.181 119.815 764.276 112.54C763.983 111.417 764.13 110.318 764.716 109.244C765.351 108.219 766.254 107.56 767.426 107.267C768.549 106.974 769.647 107.12 770.722 107.706C771.747 108.341 772.406 109.22 772.699 110.343C774.018 115.421 777.436 119.303 782.953 121.988C787.543 124.186 792.792 125.284 798.7 125.284C805.097 125.284 810.59 123.233 815.18 119.132C819.77 115.03 822.211 110.025 822.504 104.117C822.699 99.8691 821.234 96.1094 818.109 92.8379C813.861 88.2969 807.099 85.9531 797.821 85.8066C796.601 85.8066 795.575 85.3672 794.745 84.4883C793.915 83.6094 793.5 82.584 793.5 81.4121C793.549 80.1914 794.013 79.166 794.892 78.3359C795.722 77.5059 796.747 77.0908 797.968 77.0908C809.687 77.2861 818.524 80.5576 824.481 86.9053C829.267 91.9346 831.488 97.7939 831.146 104.483C830.805 112.735 827.484 119.718 821.186 125.431C814.936 131.144 807.44 134 798.7 134ZM797.382 85.8066C785.663 85.6602 776.825 82.4131 770.868 76.0654C766.083 70.9873 763.837 65.1035 764.13 58.4141C764.521 50.1621 767.865 43.1797 774.164 37.4668C780.414 31.7539 787.909 28.8975 796.649 28.8975C804.364 28.8975 811.249 30.5088 817.304 33.7314C824.579 37.54 829.169 43.082 831.073 50.3574C831.366 51.5293 831.22 52.6279 830.634 53.6533C829.999 54.6787 829.096 55.3379 827.924 55.6309C826.752 55.9727 825.653 55.8262 824.628 55.1914C823.603 54.6055 822.943 53.7266 822.65 52.5547C821.332 47.4766 817.914 43.6191 812.396 40.9824C807.807 38.7363 802.558 37.6133 796.649 37.6133C790.253 37.6133 784.76 39.6641 780.17 43.7656C775.58 47.8672 773.139 52.8965 772.846 58.8535C772.65 63.0527 774.115 66.7881 777.24 70.0596C781.488 74.6006 788.251 76.9443 797.528 77.0908C798.749 77.1396 799.774 77.5791 800.604 78.4092C801.435 79.2881 801.85 80.3379 801.85 81.5586C801.801 82.7305 801.361 83.7314 800.531 84.5615C799.652 85.3916 798.627 85.8066 797.455 85.8066H797.382ZM918.744 134C919.965 134 920.99 133.561 921.82 132.682C922.699 131.852 923.139 130.826 923.139 129.605C923.139 128.385 922.699 127.359 921.82 126.529C920.99 125.65 919.965 125.211 918.744 125.211H864.984V85.8066H905.194C906.415 85.8066 907.44 85.3672 908.271 84.4883C909.149 83.6582 909.589 82.6328 909.589 81.4121C909.589 80.1914 909.149 79.166 908.271 78.3359C907.44 77.457 906.415 77.0176 905.194 77.0176H864.984V37.6133L918.744 37.7598C919.965 37.7598 920.99 37.3447 921.82 36.5146C922.699 35.6357 923.139 34.5859 923.139 33.3652C923.139 32.1934 922.699 31.168 921.82 30.2891C920.99 29.4102 919.965 28.9707 918.744 28.9707L860.59 28.8242C859.418 28.7754 858.393 29.2148 857.514 30.1426C856.635 30.9727 856.195 31.998 856.195 33.2188V129.605C856.195 130.826 856.635 131.852 857.514 132.682C858.344 133.561 859.369 134 860.59 134H918.744Z" fill="black"/>
</svg>
